<svg id="visual" viewBox="0 0 900 600" width="900" height="600" xmlns="http://www.w3.org/2000/svg" xmlns:xlink="http://www.w3.org/1999/xlink" version="1.1"><rect x="0" y="0" width="900" height="600" fill="#f5f1ed"></rect><defs><linearGradient id="grad1_0" x1="33.3%" y1="0%" x2="100%" y2="100%"><stop offset="20%" stop-color="#f5f1ed" stop-opacity="1"></stop><stop offset="80%" stop-color="#f5f1ed" stop-opacity="1"></stop></linearGradient></defs><defs><linearGradient id="grad2_0" x1="0%" y1="0%" x2="66.7%" y2="100%"><stop offset="20%" stop-color="#f5f1ed" stop-opacity="1"></stop><stop offset="80%" stop-color="#f5f1ed" stop-opacity="1"></stop></linearGradient></defs><g transform="translate(900, 0)"><path d="M0 297.5C-34.9 260.6 -69.9 223.7 -117.5 203.5C-165.1 183.3 -225.5 179.9 -257.6 148.7C-289.7 117.6 -293.6 58.8 -297.5 0L0 0Z" fill="#007399"></path></g><g transform="translate(0, 600)"><path d="M0 -297.5C57.4 -292.8 114.8 -288.1 148.7 -257.6C182.6 -227.1 193 -170.7 213.9 -123.5C234.8 -76.3 266.1 -38.1 297.5 0L0 0Z" fill="#007399"></path></g></svg>