<?xml version="1.0" standalone="no"?><svg xmlns="http://www.w3.org/2000/svg" viewBox="0 0 1440 320"><path fill="#007399" fill-opacity="1" d="M0,192L26.7,165.3C53.3,139,107,85,160,90.7C213.3,96,267,160,320,197.3C373.3,235,427,245,480,234.7C533.3,224,587,192,640,186.7C693.3,181,747,203,800,181.3C853.3,160,907,96,960,74.7C1013.3,53,1067,75,1120,117.3C1173.3,160,1227,224,1280,208C1333.3,192,1387,96,1413,48L1440,0L1440,0L1413.3,0C1386.7,0,1333,0,1280,0C1226.7,0,1173,0,1120,0C1066.7,0,1013,0,960,0C906.7,0,853,0,800,0C746.7,0,693,0,640,0C586.7,0,533,0,480,0C426.7,0,373,0,320,0C266.7,0,213,0,160,0C106.7,0,53,0,27,0L0,0Z"></path></svg>