<svg xmlns="http://www.w3.org/2000/svg" version="1.1" xmlns:xlink="http://www.w3.org/1999/xlink" xmlns:svgjs="http://svgjs.dev/svgjs" width="1440" height="560" preserveAspectRatio="none" viewBox="0 0 1440 560"><g mask="url(&quot;#SvgjsMask1006&quot;)" fill="none"><rect width="1440" height="560" x="0" y="0" fill="#0e2a47"></rect><path d="M 0,158 C 57.6,135 172.8,22.8 288,43 C 403.2,63.2 460.8,256 576,259 C 691.2,262 748.8,80 864,58 C 979.2,36 1036.8,160.6 1152,149 C 1267.2,137.4 1382.4,29.8 1440,0L1440 560L0 560z" fill="rgba(0, 115, 153, 0.64)"></path><path d="M 0,357 C 96,390.2 288,535.4 480,523 C 672,510.6 768,294 960,295 C 1152,296 1344,481.4 1440,528L1440 560L0 560z" fill="rgba(0, 115, 153, 1)"></path></g><defs><mask id="SvgjsMask1006"><rect width="1440" height="560" fill="#ffffff"></rect></mask></defs></svg>